<?xml version="1.0" encoding="UTF-8"?>
<!DOCTYPE svg PUBLIC "-//W3C//DTD SVG 1.1//EN" "http://www.w3.org/Graphics/SVG/1.1/DTD/svg11.dtd">
<svg xmlns="http://www.w3.org/2000/svg" version="1.1" width="911px" height="376px" style="shape-rendering:geometricPrecision; text-rendering:geometricPrecision; image-rendering:optimizeQuality; fill-rule:evenodd; clip-rule:evenodd" xmlns:xlink="http://www.w3.org/1999/xlink">
<g><path style="opacity:0.065" fill="#200c46" d="M 193.5,21.5 C 192.5,21.5 191.5,21.5 190.5,21.5C 163.661,21.1688 136.995,21.5021 110.5,22.5C 110.167,22.5 109.833,22.5 109.5,22.5C 123.15,21.1674 137.15,20.5007 151.5,20.5C 165.671,20.5001 179.671,20.8334 193.5,21.5 Z"/></g>
<g><path style="opacity:0.997" fill="#8a73b7" d="M 190.5,21.5 C 190.5,21.8333 190.5,22.1667 190.5,22.5C 164.167,22.5 137.833,22.5 111.5,22.5C 111.832,82.669 111.499,142.669 110.5,202.5C 110.5,142.5 110.5,82.5 110.5,22.5C 136.995,21.5021 163.661,21.1688 190.5,21.5 Z"/></g>
<g><path style="opacity:1" fill="#b9a1ea" d="M 190.5,22.5 C 196.84,22.849 203.173,23.349 209.5,24C 217.584,25.8613 225.584,28.028 233.5,30.5C 239.662,34.4159 245.995,38.0825 252.5,41.5C 253.262,43.2624 254.596,44.2624 256.5,44.5C 260.119,48.7852 264.119,52.7852 268.5,56.5C 269.08,58.7488 270.413,60.4154 272.5,61.5C 272.427,63.0269 273.094,64.0269 274.5,64.5C 274.427,66.0269 275.094,67.0269 276.5,67.5C 277.685,72.204 279.685,76.5374 282.5,80.5C 282.415,83.6489 283.415,86.3155 285.5,88.5C 285.41,91.1522 286.076,93.4855 287.5,95.5C 288.426,106.821 288.593,118.154 288,129.5C 286.852,133.453 286.018,137.453 285.5,141.5C 281.83,149.845 277.83,158.178 273.5,166.5C 272.094,166.973 271.427,167.973 271.5,169.5C 269.413,170.585 268.08,172.251 267.5,174.5C 264.5,178.167 261.167,181.5 257.5,184.5C 255.973,184.427 254.973,185.094 254.5,186.5C 252.704,188.9 250.37,190.567 247.5,191.5C 245.973,191.427 244.973,192.094 244.5,193.5C 240.584,196.29 236.251,198.29 231.5,199.5C 229.447,199.402 227.78,200.069 226.5,201.5C 225.791,202.404 224.791,202.737 223.5,202.5C 221.143,202.337 218.81,202.503 216.5,203C 215.944,203.383 215.611,203.883 215.5,204.5C 209.31,205.143 203.31,206.143 197.5,207.5C 188.5,207.5 179.5,207.5 170.5,207.5C 170.5,239.167 170.5,270.833 170.5,302.5C 168.833,302.5 167.167,302.5 165.5,302.5C 165.5,270.833 165.5,239.167 165.5,207.5C 148.833,207.5 132.167,207.5 115.5,207.5C 115.5,239.5 115.5,271.5 115.5,303.5C 109.162,303.233 102.829,302.9 96.5,302.5C 93.9164,300.528 90.9164,299.528 87.5,299.5C 85.8185,297.992 83.8185,296.992 81.5,296.5C 80.5084,296.672 79.8417,296.338 79.5,295.5C 79.0269,294.094 78.0269,293.427 76.5,293.5C 59.6579,278.133 54.3246,259.466 60.5,237.5C 62.9151,234.66 64.2484,231.327 64.5,227.5C 68.4718,223.193 72.4718,218.859 76.5,214.5C 80.0246,213.241 83.0246,211.241 85.5,208.5C 86.7804,207.069 88.4471,206.402 90.5,206.5C 92.8984,206.741 94.8984,206.074 96.5,204.5C 97.9187,203.549 99.5853,203.216 101.5,203.5C 104.609,203.736 107.609,203.403 110.5,202.5C 111.499,142.669 111.832,82.669 111.5,22.5C 137.833,22.5 164.167,22.5 190.5,22.5 Z M 192.5,28.5 C 194.5,28.5 196.5,28.5 198.5,28.5C 205.329,30.0646 212.329,31.3979 219.5,32.5C 224.265,34.871 229.265,36.871 234.5,38.5C 236.336,40.588 238.669,41.9213 241.5,42.5C 276.425,67.4307 288.258,100.764 277,142.5C 268.052,166.421 251.885,183.421 228.5,193.5C 221.289,195.131 214.289,197.131 207.5,199.5C 207.167,199.5 206.833,199.5 206.5,199.5C 194.854,200.333 183.187,200.666 171.5,200.5C 171.5,161.167 171.5,121.833 171.5,82.5C 179.167,82.5 186.833,82.5 194.5,82.5C 196.717,83.3686 199.05,83.702 201.5,83.5C 204.979,85.4031 208.646,87.0698 212.5,88.5C 212.973,89.9063 213.973,90.573 215.5,90.5C 228.325,105.738 228.658,121.238 216.5,137C 213.93,139.087 211.263,140.92 208.5,142.5C 202.519,144.485 196.519,145.818 190.5,146.5C 188.656,148.279 187.99,150.612 188.5,153.5C 194.892,154.05 200.892,153.05 206.5,150.5C 208.553,150.598 210.22,149.931 211.5,148.5C 212.492,148.672 213.158,148.338 213.5,147.5C 215.027,147.573 216.027,146.906 216.5,145.5C 219.089,144.581 221.089,142.914 222.5,140.5C 223.833,140.5 224.5,139.833 224.5,138.5C 225.401,137.71 226.068,136.71 226.5,135.5C 227.906,135.027 228.573,134.027 228.5,132.5C 229.338,132.158 229.672,131.492 229.5,130.5C 231.511,128.333 232.678,125.666 233,122.5C 233.817,116.984 233.651,111.65 232.5,106.5C 232.472,103.084 231.472,100.084 229.5,97.5C 229.573,95.9731 228.906,94.9731 227.5,94.5C 227.573,92.9731 226.906,91.9731 225.5,91.5C 222.262,85.3711 217.262,81.3711 210.5,79.5C 205.295,76.7169 199.628,75.2169 193.5,75C 183.466,74.2424 173.466,74.409 163.5,75.5C 163.5,117.167 163.5,158.833 163.5,200.5C 147.833,200.5 132.167,200.5 116.5,200.5C 116.5,143.167 116.5,85.8333 116.5,28.5C 141.833,28.5 167.167,28.5 192.5,28.5 Z M 107.5,297.5 C 106.833,297.5 106.167,297.5 105.5,297.5C 96.2569,295.887 87.5903,292.554 79.5,287.5C 77.5,284.833 75.1667,282.5 72.5,280.5C 71.8897,278.566 70.8897,276.899 69.5,275.5C 67.7875,271.422 66.1209,267.422 64.5,263.5C 64.5,263.167 64.5,262.833 64.5,262.5C 64.3338,256.158 64.5005,249.825 65,243.5C 67.2023,238.437 69.369,233.437 71.5,228.5C 74.5,226.167 77.1667,223.5 79.5,220.5C 80.5,220.167 81.1667,219.5 81.5,218.5C 83.674,218.25 85.3406,217.25 86.5,215.5C 88.8185,215.008 90.8185,214.008 92.5,212.5C 98.0191,210.704 103.686,209.704 109.5,209.5C 109.058,225.913 109.058,242.413 109.5,259C 109.481,272.056 108.814,284.89 107.5,297.5 Z"/></g>
<g><path style="opacity:0.937" fill="#7e67aa" d="M 115.5,27.5 C 142.33,26.3364 169.33,26.1698 196.5,27C 198.708,27.1909 200.708,27.6909 202.5,28.5C 201.167,28.5 199.833,28.5 198.5,28.5C 196.5,28.5 194.5,28.5 192.5,28.5C 167.005,27.5022 141.339,27.1689 115.5,27.5 Z"/></g>
<g><path style="opacity:0.416" fill="#45306d" d="M 190.5,22.5 C 190.5,22.1667 190.5,21.8333 190.5,21.5C 191.5,21.5 192.5,21.5 193.5,21.5C 207.643,21.459 220.977,24.459 233.5,30.5C 225.584,28.028 217.584,25.8613 209.5,24C 203.173,23.349 196.84,22.849 190.5,22.5 Z"/></g>
<g><path style="opacity:0.286" fill="#452f6c" d="M 115.5,27.5 C 141.339,27.1689 167.005,27.5022 192.5,28.5C 167.167,28.5 141.833,28.5 116.5,28.5C 116.5,85.8333 116.5,143.167 116.5,200.5C 116.5,200.833 116.5,201.167 116.5,201.5C 116.167,201.5 115.833,201.5 115.5,201.5C 115.5,143.5 115.5,85.5 115.5,27.5 Z"/></g>
<g><path style="opacity:0.871" fill="#5f4889" d="M 198.5,28.5 C 199.833,28.5 201.167,28.5 202.5,28.5C 208.765,28.2753 214.432,29.6086 219.5,32.5C 212.329,31.3979 205.329,30.0646 198.5,28.5 Z"/></g>
<g><path style="opacity:0.694" fill="#4b3573" d="M 219.5,32.5 C 225.22,32.9564 230.22,34.9564 234.5,38.5C 229.265,36.871 224.265,34.871 219.5,32.5 Z"/></g>
<g><path style="opacity:0.384" fill="#4c3675" d="M 233.5,30.5 C 240.616,32.8888 246.949,36.5555 252.5,41.5C 245.995,38.0825 239.662,34.4159 233.5,30.5 Z"/></g>
<g><path style="opacity:0.239" fill="#3e2966" d="M 234.5,38.5 C 237.578,38.587 239.911,39.9203 241.5,42.5C 238.669,41.9213 236.336,40.588 234.5,38.5 Z"/></g>
<g><path style="opacity:0.027" fill="#412c69" d="M 252.5,41.5 C 254.404,41.7376 255.738,42.7376 256.5,44.5C 254.596,44.2624 253.262,43.2624 252.5,41.5 Z"/></g>
<g><path style="opacity:0.404" fill="#483370" d="M 256.5,44.5 C 261.521,47.5213 265.521,51.5213 268.5,56.5C 264.119,52.7852 260.119,48.7852 256.5,44.5 Z"/></g>
<g><path style="opacity:0.259" fill="#4e3877" d="M 268.5,56.5 C 270.587,57.5846 271.92,59.2512 272.5,61.5C 270.413,60.4154 269.08,58.7488 268.5,56.5 Z"/></g>
<g><path style="opacity:0.665" fill="#3a2761" d="M 109.5,22.5 C 109.833,22.5 110.167,22.5 110.5,22.5C 110.5,82.5 110.5,142.5 110.5,202.5C 107.609,203.403 104.609,203.736 101.5,203.5C 103.893,202.79 106.393,202.123 109,201.5C 109.5,141.834 109.667,82.1676 109.5,22.5 Z"/></g>
<g><path style="opacity:0.314" fill="#4d3776" d="M 272.5,61.5 C 273.906,61.9731 274.573,62.9731 274.5,64.5C 273.094,64.0269 272.427,63.0269 272.5,61.5 Z"/></g>
<g><path style="opacity:0.294" fill="#4b3473" d="M 274.5,64.5 C 275.906,64.9731 276.573,65.9731 276.5,67.5C 275.094,67.0269 274.427,66.0269 274.5,64.5 Z"/></g>
<g><path style="opacity:0.859" fill="#604a8b" d="M 276.5,67.5 C 279.829,71.1606 281.829,75.4939 282.5,80.5C 279.685,76.5374 277.685,72.204 276.5,67.5 Z"/></g>
<g><path style="opacity:1" fill="#a48cd3" d="M 165.5,76.5 C 177.012,76.1719 188.346,76.5052 199.5,77.5C 188.5,77.5 177.5,77.5 166.5,77.5C 166.832,119.003 166.499,160.337 165.5,201.5C 165.5,159.833 165.5,118.167 165.5,76.5 Z"/></g>
<g><path style="opacity:0.38" fill="#493472" d="M 210.5,79.5 C 217.262,81.3711 222.262,85.3711 225.5,91.5C 221.008,86.7681 216.008,82.7681 210.5,79.5 Z"/></g>
<g><path style="opacity:0.157" fill="#47316f" d="M 201.5,83.5 C 205.794,83.7955 209.461,85.4622 212.5,88.5C 208.646,87.0698 204.979,85.4031 201.5,83.5 Z"/></g>
<g><path style="opacity:0.792" fill="#6a5495" d="M 282.5,80.5 C 284.585,82.6845 285.585,85.3511 285.5,88.5C 283.415,86.3155 282.415,83.6489 282.5,80.5 Z"/></g>
<g><path style="opacity:0.38" fill="#3d2865" d="M 212.5,88.5 C 214.027,88.427 215.027,89.0937 215.5,90.5C 213.973,90.573 212.973,89.9063 212.5,88.5 Z"/></g>
<g><path style="opacity:0.673" fill="#624c8d" d="M 194.5,82.5 C 186.833,82.5 179.167,82.5 171.5,82.5C 171.5,121.833 171.5,161.167 171.5,200.5C 171.5,200.833 171.5,201.167 171.5,201.5C 170.501,161.67 170.168,121.67 170.5,81.5C 178.684,81.1743 186.684,81.5076 194.5,82.5 Z"/></g>
<g><path style="opacity:0.443" fill="#584282" d="M 225.5,91.5 C 226.906,91.9731 227.573,92.9731 227.5,94.5C 226.094,94.0269 225.427,93.0269 225.5,91.5 Z"/></g>
<g><path style="opacity:0.349" fill="#513b7a" d="M 285.5,88.5 C 286.924,90.5145 287.59,92.8478 287.5,95.5C 286.076,93.4855 285.41,91.1522 285.5,88.5 Z"/></g>
<g><path style="opacity:0.31" fill="#493470" d="M 227.5,94.5 C 228.906,94.9731 229.573,95.9731 229.5,97.5C 228.094,97.0269 227.427,96.0269 227.5,94.5 Z"/></g>
<g><path style="opacity:0.522" fill="#533d7c" d="M 229.5,97.5 C 231.472,100.084 232.472,103.084 232.5,106.5C 231.833,105.5 231.167,104.5 230.5,103.5C 229.85,101.565 229.517,99.5648 229.5,97.5 Z"/></g>
<g><path style="opacity:0.243" fill="#4f3976" d="M 287.5,95.5 C 291.926,111.051 291.26,126.385 285.5,141.5C 286.018,137.453 286.852,133.453 288,129.5C 288.593,118.154 288.426,106.821 287.5,95.5 Z"/></g>
<g><path style="opacity:0.976" fill="#6d5799" d="M 281.5,97.5 C 282.965,102.59 283.632,107.923 283.5,113.5C 283.498,117.018 283.165,120.351 282.5,123.5C 282.536,114.815 282.203,106.149 281.5,97.5 Z"/></g>
<g><path style="opacity:1" fill="#765fa1" d="M 230.5,103.5 C 231.167,104.5 231.833,105.5 232.5,106.5C 233.651,111.65 233.817,116.984 233,122.5C 232.678,125.666 231.511,128.333 229.5,130.5C 231.59,121.571 231.923,112.571 230.5,103.5 Z"/></g>
<g><path style="opacity:0.765" fill="#614b8b" d="M 165.5,76.5 C 165.5,118.167 165.5,159.833 165.5,201.5C 148.833,202.833 132.167,202.833 115.5,201.5C 115.833,201.5 116.167,201.5 116.5,201.5C 132.5,201.5 148.5,201.5 164.5,201.5C 164.168,159.663 164.501,117.997 165.5,76.5 Z"/></g>
<g><path style="opacity:0.051" fill="#35205c" d="M 215.5,90.5 C 218.058,92.5502 220.558,94.8835 223,97.5C 224.903,99.441 225.736,101.774 225.5,104.5C 226.833,111.5 226.833,118.5 225.5,125.5C 222.463,132.035 218.13,137.535 212.5,142C 211.207,142.49 209.873,142.657 208.5,142.5C 211.263,140.92 213.93,139.087 216.5,137C 228.658,121.238 228.325,105.738 215.5,90.5 Z"/></g>
<g><path style="opacity:1" fill="#715a9c" d="M 225.5,104.5 C 227.03,107.695 227.696,111.195 227.5,115C 227.696,118.805 227.03,122.305 225.5,125.5C 226.833,118.5 226.833,111.5 225.5,104.5 Z"/></g>
<g><path style="opacity:0.239" fill="#220d48" d="M 580.5,130.5 C 588.99,129.343 597.657,129.176 606.5,130C 607.738,130.69 607.738,131.19 606.5,131.5C 606.167,131.5 605.833,131.5 605.5,131.5C 597.35,130.507 589.017,130.174 580.5,130.5 Z"/></g>
<g><path style="opacity:1" fill="#654e8f" d="M 316.5,131.5 C 322.31,130.51 328.31,130.177 334.5,130.5C 337.732,130.772 339.732,132.438 340.5,135.5C 338.887,133.73 336.887,132.564 334.5,132C 328.509,131.501 322.509,131.334 316.5,131.5 Z"/></g>
<g><path style="opacity:0.984" fill="#442e6c" d="M 442.5,132.5 C 440.283,131.631 437.95,131.298 435.5,131.5C 435.784,133.415 435.451,135.081 434.5,136.5C 433.513,130.669 435.846,128.502 441.5,130C 442.252,130.671 442.586,131.504 442.5,132.5 Z"/></g>
<g><path style="opacity:1" fill="#b59de5" d="M 316.5,131.5 C 322.509,131.334 328.509,131.501 334.5,132C 336.887,132.564 338.887,133.73 340.5,135.5C 340.427,137.027 341.094,138.027 342.5,138.5C 343.725,143.509 343.725,148.509 342.5,153.5C 341.326,154.514 340.66,155.847 340.5,157.5C 340.5,158.167 340.167,158.5 339.5,158.5C 337.81,158.856 336.81,159.856 336.5,161.5C 331.5,161.5 326.5,161.5 321.5,161.5C 321.5,170.167 321.5,178.833 321.5,187.5C 319.833,187.5 318.167,187.5 316.5,187.5C 316.5,168.833 316.5,150.167 316.5,131.5 Z M 333.5,137.5 C 336.09,141.733 337.09,146.4 336.5,151.5C 333.08,156.138 328.58,157.471 323,155.5C 322.5,149.175 322.334,142.842 322.5,136.5C 326.198,136.552 329.865,136.886 333.5,137.5 Z"/></g>
<g><path style="opacity:1" fill="#b39be3" d="M 377.5,131.5 C 377.17,149.008 377.503,166.341 378.5,183.5C 385.022,183.177 391.355,183.51 397.5,184.5C 397.5,185.5 397.5,186.5 397.5,187.5C 389.5,187.5 381.5,187.5 373.5,187.5C 372.503,169.007 372.17,150.341 372.5,131.5C 374.167,131.5 375.833,131.5 377.5,131.5 Z"/></g>
<g><path style="opacity:1" fill="#af97df" d="M 442.5,132.5 C 444.609,139.949 446.275,147.616 447.5,155.5C 447.565,158.428 448.232,161.095 449.5,163.5C 451.323,169.61 452.657,175.943 453.5,182.5C 453.5,184.167 453.5,185.833 453.5,187.5C 451.856,187.714 450.356,187.38 449,186.5C 448.174,183.207 447.674,179.874 447.5,176.5C 441.833,176.5 436.167,176.5 430.5,176.5C 430.5,178.5 430.5,180.5 430.5,182.5C 429.069,183.78 428.402,185.447 428.5,187.5C 426.517,187.843 425.183,187.176 424.5,185.5C 427.09,173.55 429.423,161.55 431.5,149.5C 432.768,147.095 433.435,144.428 433.5,141.5C 433.216,139.585 433.549,137.919 434.5,136.5C 435.451,135.081 435.784,133.415 435.5,131.5C 437.95,131.298 440.283,131.631 442.5,132.5 Z M 441.5,153.5 C 441.695,159.176 442.695,164.676 444.5,170C 441.777,171.112 438.944,171.612 436,171.5C 434.251,171.252 433.418,170.252 433.5,168.5C 434.995,161.89 436.328,155.224 437.5,148.5C 438.268,147.737 438.768,146.737 439,145.5C 439.782,148.31 440.616,150.977 441.5,153.5 Z"/></g>
<g><path style="opacity:0.999" fill="#bea5ef" d="M 488.5,132.5 C 488.804,135.522 489.304,138.522 490,141.5C 490.708,142.381 491.542,143.047 492.5,143.5C 492.5,143.833 492.5,144.167 492.5,144.5C 492.837,148.836 494.504,152.503 497.5,155.5C 497.402,157.553 498.069,159.22 499.5,160.5C 499.5,160.833 499.5,161.167 499.5,161.5C 500.11,165.829 501.61,169.829 504,173.5C 504.5,159.504 504.667,145.504 504.5,131.5C 505.833,131.5 507.167,131.5 508.5,131.5C 508.5,150.167 508.5,168.833 508.5,187.5C 506.833,187.5 505.167,187.5 503.5,187.5C 498.782,173.731 493.782,160.064 488.5,146.5C 488.44,145.957 488.107,145.624 487.5,145.5C 486.501,159.484 486.167,173.484 486.5,187.5C 485.167,187.5 483.833,187.5 482.5,187.5C 482.5,168.833 482.5,150.167 482.5,131.5C 484.621,131.325 486.621,131.659 488.5,132.5 Z"/></g>
<g><path style="opacity:0.808" fill="#7861a4" d="M 508.5,131.5 C 508.833,131.5 509.167,131.5 509.5,131.5C 510.055,146.273 510.055,161.273 509.5,176.5C 509.815,180.371 509.482,184.038 508.5,187.5C 508.5,168.833 508.5,150.167 508.5,131.5 Z"/></g>
<g><path style="opacity:0.997" fill="#a28ad1" d="M 547.5,131.5 C 548.833,150.167 548.833,168.833 547.5,187.5C 545.833,187.5 544.167,187.5 542.5,187.5C 542.5,168.833 542.5,150.167 542.5,131.5C 544.167,131.5 545.833,131.5 547.5,131.5 Z"/></g>
<g><path style="opacity:0.997" fill="#b8a0e8" d="M 636.5,131.5 C 636.528,134.916 637.528,137.916 639.5,140.5C 639.5,140.833 639.5,141.167 639.5,141.5C 640.359,145.562 641.526,149.562 643,153.5C 643.414,153.957 643.914,154.291 644.5,154.5C 647.618,147.318 650.451,139.985 653,132.5C 654.356,131.62 655.856,131.286 657.5,131.5C 656.797,135.647 655.797,139.647 654.5,143.5C 652.755,145.033 651.755,147.033 651.5,149.5C 650.962,151.117 650.629,152.784 650.5,154.5C 648.787,155.635 648.12,157.302 648.5,159.5C 647.883,159.611 647.383,159.944 647,160.5C 646.5,169.494 646.334,178.494 646.5,187.5C 645.167,187.5 643.833,187.5 642.5,187.5C 642.827,178.318 642.493,169.318 641.5,160.5C 641.068,159.29 640.401,158.29 639.5,157.5C 638.776,154.157 637.943,150.824 637,147.5C 636.617,146.944 636.117,146.611 635.5,146.5C 634.174,141.504 632.841,136.504 631.5,131.5C 633.167,131.5 634.833,131.5 636.5,131.5 Z"/></g>
<g><path style="opacity:0.612" fill="#553f7d" d="M 377.5,131.5 C 377.833,131.5 378.167,131.5 378.5,131.5C 379.766,148.324 379.766,164.991 378.5,181.5C 378.5,182.167 378.5,182.833 378.5,183.5C 377.503,166.341 377.17,149.008 377.5,131.5 Z"/></g>
<g><path style="opacity:0.618" fill="#4b3574" d="M 580.5,130.5 C 589.017,130.174 597.35,130.507 605.5,131.5C 605.833,131.5 606.167,131.5 606.5,131.5C 606.5,133.167 606.5,134.833 606.5,136.5C 599.833,136.5 593.167,136.5 586.5,136.5C 586.5,142.833 586.5,149.167 586.5,155.5C 590.514,155.334 594.514,155.501 598.5,156C 599.308,156.308 599.975,156.808 600.5,157.5C 599.948,159.003 599.948,160.669 600.5,162.5C 596.1,163.466 591.767,163.799 587.5,163.5C 586.502,171.807 586.169,180.14 586.5,188.5C 584.416,189.248 582.416,189.248 580.5,188.5C 579.172,169.004 579.172,149.671 580.5,130.5 Z"/></g>
<g><path style="opacity:1" fill="#b49ce4" d="M 605.5,131.5 C 605.5,132.833 605.5,134.167 605.5,135.5C 598.833,135.5 592.167,135.5 585.5,135.5C 585.334,142.508 585.5,149.508 586,156.5C 590.066,157.464 594.233,157.797 598.5,157.5C 598.5,158.833 598.5,160.167 598.5,161.5C 594.167,161.5 589.833,161.5 585.5,161.5C 585.5,170.167 585.5,178.833 585.5,187.5C 583.833,187.5 582.167,187.5 580.5,187.5C 580.5,168.833 580.5,150.167 580.5,131.5C 588.833,131.5 597.167,131.5 605.5,131.5 Z"/></g>
<g><path style="opacity:0.231" fill="#5f4989" d="M 228.5,132.5 C 228.573,134.027 227.906,135.027 226.5,135.5C 226.427,133.973 227.094,132.973 228.5,132.5 Z"/></g>
<g><path style="opacity:0.855" fill="#533d7d" d="M 636.5,131.5 C 638.31,134.145 639.31,137.145 639.5,140.5C 637.528,137.916 636.528,134.916 636.5,131.5 Z"/></g>
<g><path style="opacity:0.635" fill="#3a2562" d="M 241.5,42.5 C 263.333,54.6646 276.667,72.9979 281.5,97.5C 282.203,106.149 282.536,114.815 282.5,123.5C 278.355,157.632 260.355,180.965 228.5,193.5C 251.885,183.421 268.052,166.421 277,142.5C 288.258,100.764 276.425,67.4307 241.5,42.5 Z"/></g>
<g><path style="opacity:0.337" fill="#412b69" d="M 340.5,135.5 C 341.906,135.973 342.573,136.973 342.5,138.5C 341.094,138.027 340.427,137.027 340.5,135.5 Z"/></g>
<g><path style="opacity:0.224" fill="#483371" d="M 636.5,131.5 C 634.833,131.5 633.167,131.5 631.5,131.5C 632.841,136.504 634.174,141.504 635.5,146.5C 632.938,142.169 630.938,137.503 629.5,132.5C 630.115,130.616 631.448,129.616 633.5,129.5C 635.03,129.64 636.03,130.307 636.5,131.5 Z"/></g>
<g><path style="opacity:0.008" fill="#3f2a67" d="M 224.5,138.5 C 224.5,139.833 223.833,140.5 222.5,140.5C 222.833,139.5 223.5,138.833 224.5,138.5 Z"/></g>
<g><path style="opacity:1" fill="#7d65a9" d="M 488.5,132.5 C 490.204,135.939 491.538,139.605 492.5,143.5C 491.542,143.047 490.708,142.381 490,141.5C 489.304,138.522 488.804,135.522 488.5,132.5 Z"/></g>
<g><path style="opacity:0.286" fill="#36215d" d="M 433.5,141.5 C 433.435,144.428 432.768,147.095 431.5,149.5C 431.294,146.505 431.96,143.838 433.5,141.5 Z"/></g>
<g><path style="opacity:0.116" fill="#27124d" d="M 210.5,79.5 C 206.864,78.6745 203.197,78.0078 199.5,77.5C 188.346,76.5052 177.012,76.1719 165.5,76.5C 164.501,117.997 164.168,159.663 164.5,201.5C 148.5,201.5 132.5,201.5 116.5,201.5C 116.5,201.167 116.5,200.833 116.5,200.5C 132.167,200.5 147.833,200.5 163.5,200.5C 163.5,158.833 163.5,117.167 163.5,75.5C 173.466,74.409 183.466,74.2424 193.5,75C 199.628,75.2169 205.295,76.7169 210.5,79.5 Z"/></g>
<g><path style="opacity:0.525" fill="#331e5a" d="M 334.5,130.5 C 328.31,130.177 322.31,130.51 316.5,131.5C 316.5,150.167 316.5,168.833 316.5,187.5C 318.167,187.5 319.833,187.5 321.5,187.5C 321.5,178.833 321.5,170.167 321.5,161.5C 326.5,161.5 331.5,161.5 336.5,161.5C 332.147,163.271 327.647,163.938 323,163.5C 322.5,171.827 322.334,180.16 322.5,188.5C 320.248,189.333 318.081,189.333 316,188.5C 314.476,169.526 314.142,150.526 315,131.5C 316.028,129.484 317.695,128.484 320,128.5C 324.996,129.034 329.83,129.7 334.5,130.5 Z"/></g>
<g><path style="opacity:0.076" fill="#412b68" d="M 333.5,137.5 C 329.865,136.886 326.198,136.552 322.5,136.5C 322.334,142.842 322.5,149.175 323,155.5C 328.58,157.471 333.08,156.138 336.5,151.5C 336.16,153.679 335.16,155.512 333.5,157C 329.514,157.499 325.514,157.666 321.5,157.5C 321.5,150.167 321.5,142.833 321.5,135.5C 325.971,134.911 329.971,135.577 333.5,137.5 Z"/></g>
<g><path style="opacity:0.149" fill="#35205c" d="M 342.5,138.5 C 345.167,143.5 345.167,148.5 342.5,153.5C 343.725,148.509 343.725,143.509 342.5,138.5 Z"/></g>
<g><path style="opacity:0.543" fill="#28134e" d="M 378.5,131.5 C 378.167,131.5 377.833,131.5 377.5,131.5C 375.833,131.5 374.167,131.5 372.5,131.5C 372.17,150.341 372.503,169.007 373.5,187.5C 373.5,187.833 373.5,188.167 373.5,188.5C 372.069,188.119 371.236,187.119 371,185.5C 370.333,168.5 370.333,151.5 371,134.5C 370.734,131.118 372.234,129.452 375.5,129.5C 377.03,129.64 378.03,130.307 378.5,131.5 Z"/></g>
<g><path style="opacity:0.744" fill="#5f4989" d="M 488.5,132.5 C 486.621,131.659 484.621,131.325 482.5,131.5C 482.5,150.167 482.5,168.833 482.5,187.5C 483.833,187.5 485.167,187.5 486.5,187.5C 486.167,173.484 486.501,159.484 487.5,145.5C 488.107,145.624 488.44,145.957 488.5,146.5C 487.532,148.607 487.198,150.941 487.5,153.5C 488.084,164.527 488.417,175.527 488.5,186.5C 487.197,189.379 485.197,190.045 482.5,188.5C 481.5,168.845 481.167,149.178 481.5,129.5C 483.527,129.338 485.527,129.505 487.5,130C 488.252,130.671 488.586,131.504 488.5,132.5 Z"/></g>
<g><path style="opacity:0.588" fill="#493371" d="M 509.5,131.5 C 509.167,131.5 508.833,131.5 508.5,131.5C 507.167,131.5 505.833,131.5 504.5,131.5C 504.667,145.504 504.5,159.504 504,173.5C 501.61,169.829 500.11,165.829 499.5,161.5C 501.163,163.493 502.33,165.826 503,168.5C 503.773,158.31 503.606,148.143 502.5,138C 503,135.5 503.5,133 504,130.5C 506.339,128.922 508.172,129.255 509.5,131.5 Z"/></g>
<g><path style="opacity:0.208" fill="#38235e" d="M 208.5,142.5 C 206.333,144.511 203.666,145.678 200.5,146C 197.183,146.498 193.85,146.665 190.5,146.5C 196.519,145.818 202.519,144.485 208.5,142.5 Z"/></g>
<g><path style="opacity:0.51" fill="#3b2662" d="M 333.5,137.5 C 335.411,137.574 336.578,138.574 337,140.5C 337.81,144.358 337.643,148.024 336.5,151.5C 337.09,146.4 336.09,141.733 333.5,137.5 Z"/></g>
<g><path style="opacity:0.545" fill="#442f6b" d="M 441.5,153.5 C 440.616,150.977 439.782,148.31 439,145.5C 438.768,146.737 438.268,147.737 437.5,148.5C 437.523,146.073 438.023,143.74 439,141.5C 440.783,145.245 441.616,149.245 441.5,153.5 Z"/></g>
<g><path style="opacity:0.585" fill="#412b69" d="M 547.5,131.5 C 545.833,131.5 544.167,131.5 542.5,131.5C 542.5,150.167 542.5,168.833 542.5,187.5C 544.167,187.5 545.833,187.5 547.5,187.5C 545.46,190.134 543.293,190.134 541,187.5C 540.204,168.136 540.37,148.802 541.5,129.5C 544.082,129.025 546.082,129.692 547.5,131.5 Z"/></g>
<g><path style="opacity:0.835" fill="#695394" d="M 654.5,143.5 C 653.962,145.117 653.629,146.784 653.5,148.5C 652.833,148.833 652.167,149.167 651.5,149.5C 651.755,147.033 652.755,145.033 654.5,143.5 Z"/></g>
<g><path style="opacity:0.039" fill="#4a3473" d="M 216.5,145.5 C 216.027,146.906 215.027,147.573 213.5,147.5C 213.973,146.094 214.973,145.427 216.5,145.5 Z"/></g>
<g><path style="opacity:0.169" fill="#37225f" d="M 190.5,146.5 C 189.659,148.379 189.325,150.379 189.5,152.5C 195.208,152.16 200.875,151.493 206.5,150.5C 200.892,153.05 194.892,154.05 188.5,153.5C 187.99,150.612 188.656,148.279 190.5,146.5 Z"/></g>
<g><path style="opacity:0.929" fill="#6b5496" d="M 492.5,144.5 C 494.951,147.74 496.618,151.407 497.5,155.5C 494.504,152.503 492.837,148.836 492.5,144.5 Z"/></g>
<g><path style="opacity:0.62" fill="#523c7b" d="M 654.5,143.5 C 655.797,139.647 656.797,135.647 657.5,131.5C 655.856,131.286 654.356,131.62 653,132.5C 650.451,139.985 647.618,147.318 644.5,154.5C 643.914,154.291 643.414,153.957 643,153.5C 641.526,149.562 640.359,145.562 639.5,141.5C 641.233,144.486 643.066,147.486 645,150.5C 647.333,144.167 649.667,137.833 652,131.5C 654.973,128.561 657.473,128.895 659.5,132.5C 658.392,136.522 656.725,140.188 654.5,143.5 Z"/></g>
<g><path style="opacity:0.235" fill="#4c3675" d="M 211.5,148.5 C 210.22,149.931 208.553,150.598 206.5,150.5C 207.78,149.069 209.447,148.402 211.5,148.5 Z"/></g>
<g><path style="opacity:0.443" fill="#432d6b" d="M 635.5,146.5 C 636.117,146.611 636.617,146.944 637,147.5C 637.943,150.824 638.776,154.157 639.5,157.5C 636.81,154.431 635.477,150.764 635.5,146.5 Z"/></g>
<g><path style="opacity:0.506" fill="#311c58" d="M 431.5,149.5 C 429.423,161.55 427.09,173.55 424.5,185.5C 424.167,185.5 423.833,185.5 423.5,185.5C 424.874,173.077 427.54,161.077 431.5,149.5 Z"/></g>
<g><path style="opacity:0.008" fill="#2e1954" d="M 653.5,148.5 C 653.245,150.967 652.245,152.967 650.5,154.5C 650.629,152.784 650.962,151.117 651.5,149.5C 652.167,149.167 652.833,148.833 653.5,148.5 Z"/></g>
<g><path style="opacity:0.376" fill="#675192" d="M 285.5,141.5 C 283.879,151.072 279.879,159.405 273.5,166.5C 277.83,158.178 281.83,149.845 285.5,141.5 Z"/></g>
<g><path style="opacity:0.122" fill="#432e6b" d="M 342.5,153.5 C 342.771,155.38 342.104,156.713 340.5,157.5C 340.66,155.847 341.326,154.514 342.5,153.5 Z"/></g>
<g><path style="opacity:0.447" fill="#553f7e" d="M 650.5,154.5 C 650.598,156.553 649.931,158.22 648.5,159.5C 648.12,157.302 648.787,155.635 650.5,154.5 Z"/></g>
<g><path style="opacity:0.49" fill="#533d7c" d="M 447.5,155.5 C 449.04,157.838 449.706,160.505 449.5,163.5C 448.232,161.095 447.565,158.428 447.5,155.5 Z"/></g>
<g><path style="opacity:0.067" fill="#210f45" d="M 497.5,155.5 C 498.931,156.78 499.598,158.447 499.5,160.5C 498.069,159.22 497.402,157.553 497.5,155.5 Z"/></g>
<g><path style="opacity:0.016" fill="#3c2664" d="M 339.5,158.5 C 339.19,160.144 338.19,161.144 336.5,161.5C 336.81,159.856 337.81,158.856 339.5,158.5 Z"/></g>
<g><path style="opacity:0.336" fill="#2e1955" d="M 639.5,157.5 C 640.401,158.29 641.068,159.29 641.5,160.5C 641.5,169.5 641.5,178.5 641.5,187.5C 640.76,177.643 640.094,167.643 639.5,157.5 Z"/></g>
<g><path style="opacity:0.016" fill="#4d3877" d="M 273.5,166.5 C 273.573,168.027 272.906,169.027 271.5,169.5C 271.427,167.973 272.094,166.973 273.5,166.5 Z"/></g>
<g><path style="opacity:0.775" fill="#4a3472" d="M 441.5,153.5 C 443.579,159.558 444.913,165.891 445.5,172.5C 441.167,172.5 436.833,172.5 432.5,172.5C 432.232,170.901 432.566,169.568 433.5,168.5C 433.418,170.252 434.251,171.252 436,171.5C 438.944,171.612 441.777,171.112 444.5,170C 442.695,164.676 441.695,159.176 441.5,153.5 Z"/></g>
<g><path style="opacity:0.047" fill="#513c7a" d="M 271.5,169.5 C 270.92,171.749 269.587,173.415 267.5,174.5C 268.08,172.251 269.413,170.585 271.5,169.5 Z"/></g>
<g><path style="opacity:0.523" fill="#614b8b" d="M 648.5,159.5 C 647.224,168.513 647.224,177.513 648.5,186.5C 646.444,189.941 644.111,190.274 641.5,187.5C 641.5,178.5 641.5,169.5 641.5,160.5C 642.493,169.318 642.827,178.318 642.5,187.5C 643.833,187.5 645.167,187.5 646.5,187.5C 646.334,178.494 646.5,169.494 647,160.5C 647.383,159.944 647.883,159.611 648.5,159.5 Z"/></g>
<g><path style="opacity:0.292" fill="#47316f" d="M 453.5,182.5 C 456.649,185.552 456.149,187.885 452,189.5C 450.527,189.097 449.194,188.43 448,187.5C 447.543,184.204 446.709,181.037 445.5,178C 440.845,177.501 436.179,177.334 431.5,177.5C 431.784,179.415 431.451,181.081 430.5,182.5C 430.5,180.5 430.5,178.5 430.5,176.5C 436.167,176.5 441.833,176.5 447.5,176.5C 447.674,179.874 448.174,183.207 449,186.5C 450.356,187.38 451.856,187.714 453.5,187.5C 453.5,185.833 453.5,184.167 453.5,182.5 Z"/></g>
<g><path style="opacity:0.688" fill="#36225e" d="M 378.5,181.5 C 384.459,182.176 390.459,182.343 396.5,182C 397.756,182.417 398.423,183.25 398.5,184.5C 398.167,184.5 397.833,184.5 397.5,184.5C 391.355,183.51 385.022,183.177 378.5,183.5C 378.5,182.833 378.5,182.167 378.5,181.5 Z"/></g>
<g><path style="opacity:0.2" fill="#3e2865" d="M 488.5,146.5 C 493.782,160.064 498.782,173.731 503.5,187.5C 505.167,187.5 506.833,187.5 508.5,187.5C 509.482,184.038 509.815,180.371 509.5,176.5C 510.483,180.298 510.817,184.298 510.5,188.5C 507.627,190.073 504.961,189.74 502.5,187.5C 497.889,175.494 493.389,163.494 489,151.5C 488.722,152.416 488.222,153.082 487.5,153.5C 487.198,150.941 487.532,148.607 488.5,146.5 Z"/></g>
<g><path style="opacity:0.043" fill="#432d6b" d="M 257.5,184.5 C 257.027,185.906 256.027,186.573 254.5,186.5C 254.973,185.094 255.973,184.427 257.5,184.5 Z"/></g>
<g><path style="opacity:0.697" fill="#644e8f" d="M 397.5,184.5 C 397.833,184.5 398.167,184.5 398.5,184.5C 398.5,185.833 398.5,187.167 398.5,188.5C 389.957,188.647 381.623,188.647 373.5,188.5C 373.5,188.167 373.5,187.833 373.5,187.5C 381.5,187.5 389.5,187.5 397.5,187.5C 397.5,186.5 397.5,185.5 397.5,184.5 Z"/></g>
<g><path style="opacity:0.712" fill="#5e4788" d="M 430.5,182.5 C 430.167,184.5 429.833,186.5 429.5,188.5C 428.07,188.421 426.736,188.754 425.5,189.5C 423.889,188.68 423.222,187.346 423.5,185.5C 423.833,185.5 424.167,185.5 424.5,185.5C 425.183,187.176 426.517,187.843 428.5,187.5C 428.402,185.447 429.069,183.78 430.5,182.5 Z"/></g>
<g><path style="opacity:0.039" fill="#412b69" d="M 247.5,191.5 C 247.027,192.906 246.027,193.573 244.5,193.5C 244.973,192.094 245.973,191.427 247.5,191.5 Z"/></g>
<g><path style="opacity:0.082" fill="#432e6b" d="M 228.5,193.5 C 222.114,197.066 215.114,199.066 207.5,199.5C 214.289,197.131 221.289,195.131 228.5,193.5 Z"/></g>
<g><path style="opacity:0.11" fill="#321c58" d="M 206.5,199.5 C 205.048,200.302 203.382,200.802 201.5,201C 191.506,201.5 181.506,201.666 171.5,201.5C 171.5,201.167 171.5,200.833 171.5,200.5C 183.187,200.666 194.854,200.333 206.5,199.5 Z"/></g>
<g><path style="opacity:0.216" fill="#47316f" d="M 231.5,199.5 C 230.22,200.931 228.553,201.598 226.5,201.5C 227.78,200.069 229.447,199.402 231.5,199.5 Z"/></g>
<g><path style="opacity:0.988" fill="#755e9f" d="M 223.5,202.5 C 221.485,203.924 219.152,204.59 216.5,204.5C 216.167,204.5 215.833,204.5 215.5,204.5C 215.611,203.883 215.944,203.383 216.5,203C 218.81,202.503 221.143,202.337 223.5,202.5 Z"/></g>
<g><path style="opacity:0.737" fill="#574181" d="M 96.5,204.5 C 94.8984,206.074 92.8984,206.741 90.5,206.5C 92.2143,205.262 94.2143,204.595 96.5,204.5 Z"/></g>
<g><path style="opacity:0.063" fill="#37215e" d="M 215.5,204.5 C 215.833,204.5 216.167,204.5 216.5,204.5C 210.48,206.669 204.147,207.669 197.5,207.5C 203.31,206.143 209.31,205.143 215.5,204.5 Z"/></g>
<g><path style="opacity:0.251" fill="#402b68" d="M 85.5,208.5 C 83.0246,211.241 80.0246,213.241 76.5,214.5C 78.9505,211.723 81.9505,209.723 85.5,208.5 Z"/></g>
<g><path style="opacity:0.373" fill="#3e2866" d="M 92.5,212.5 C 90.8185,214.008 88.8185,215.008 86.5,215.5C 87.911,213.461 89.911,212.461 92.5,212.5 Z"/></g>
<g><path style="opacity:0.231" fill="#382360" d="M 86.5,215.5 C 85.3406,217.25 83.674,218.25 81.5,218.5C 82.6594,216.75 84.326,215.75 86.5,215.5 Z"/></g>
<g><path style="opacity:0.512" fill="#4d3776" d="M 165.5,302.5 C 164.504,288.677 164.171,274.677 164.5,260.5C 164.5,243.167 164.5,225.833 164.5,208.5C 148.833,208.5 133.167,208.5 117.5,208.5C 116.538,240.33 116.205,271.997 116.5,303.5C 116.167,303.5 115.833,303.5 115.5,303.5C 115.5,271.5 115.5,239.5 115.5,207.5C 132.167,207.5 148.833,207.5 165.5,207.5C 165.5,239.167 165.5,270.833 165.5,302.5 Z"/></g>
<g><path style="opacity:0.18" fill="#392361" d="M 76.5,214.5 C 72.4718,218.859 68.4718,223.193 64.5,227.5C 67.1129,221.887 71.1129,217.554 76.5,214.5 Z"/></g>
<g><path style="opacity:0.047" fill="#3f2a67" d="M 79.5,220.5 C 77.1667,223.5 74.5,226.167 71.5,228.5C 73.1667,224.833 75.8333,222.167 79.5,220.5 Z"/></g>
<g><path style="opacity:0.959" fill="#ae96de" d="M 310.5,227.5 C 310.5,240.5 310.5,253.5 310.5,266.5C 309.5,266.5 308.5,266.5 307.5,266.5C 307.5,260.5 307.5,254.5 307.5,248.5C 303.833,248.5 300.167,248.5 296.5,248.5C 296.5,254.5 296.5,260.5 296.5,266.5C 295.167,266.5 293.833,266.5 292.5,266.5C 292.5,253.5 292.5,240.5 292.5,227.5C 293.833,227.5 295.167,227.5 296.5,227.5C 296.5,233.5 296.5,239.5 296.5,245.5C 300.167,245.5 303.833,245.5 307.5,245.5C 307.5,239.5 307.5,233.5 307.5,227.5C 308.5,227.5 309.5,227.5 310.5,227.5 Z"/></g>
<g><path style="opacity:1" fill="#735c9e" d="M 357.5,227.5 C 352.167,227.5 346.833,227.5 341.5,227.5C 341.5,240.167 341.5,252.833 341.5,265.5C 346.944,266.108 351.944,265.442 356.5,263.5C 357.404,264.209 357.737,265.209 357.5,266.5C 351.833,267.833 346.167,267.833 340.5,266.5C 340.5,253.5 340.5,240.5 340.5,227.5C 346.167,226.167 351.833,226.167 357.5,227.5 Z"/></g>
<g><path style="opacity:1" fill="#c0a8f1" d="M 357.5,227.5 C 357.5,228.5 357.5,229.5 357.5,230.5C 353.167,230.5 348.833,230.5 344.5,230.5C 343.769,235.855 343.102,241.355 342.5,247C 343.102,252.645 343.769,258.145 344.5,263.5C 348.5,263.5 352.5,263.5 356.5,263.5C 351.944,265.442 346.944,266.108 341.5,265.5C 341.5,252.833 341.5,240.167 341.5,227.5C 346.833,227.5 352.167,227.5 357.5,227.5 Z"/></g>
<g><path style="opacity:0.998" fill="#b098e0" d="M 397.5,227.5 C 400.712,227.712 402.712,229.379 403.5,232.5C 403.704,242.86 403.371,253.194 402.5,263.5C 401.547,265.61 399.881,266.777 397.5,267C 393.745,267.755 390.078,267.589 386.5,266.5C 386.5,253.5 386.5,240.5 386.5,227.5C 390.167,227.5 393.833,227.5 397.5,227.5 Z M 395.5,231.5 C 395.833,231.5 396.167,231.5 396.5,231.5C 397.504,232.683 398.338,234.016 399,235.5C 399.667,242.833 399.667,250.167 399,257.5C 398.743,259.907 397.576,261.573 395.5,262.5C 393.856,262.714 392.356,262.38 391,261.5C 390.333,251.833 390.333,242.167 391,232.5C 392.356,231.62 393.856,231.286 395.5,231.5 Z"/></g>
<g><path style="opacity:0.989" fill="#745da0" d="M 436.5,227.5 C 434.524,237.781 433.857,248.448 434.5,259.5C 434.167,259.5 433.833,259.5 433.5,259.5C 432.341,249.008 432.175,238.341 433,227.5C 434.292,226.209 435.458,226.209 436.5,227.5 Z"/></g>
<g><path style="opacity:0.999" fill="#a28ad1" d="M 436.5,227.5 C 436.173,237.681 436.506,247.681 437.5,257.5C 438.308,259.22 439.308,260.887 440.5,262.5C 445.08,264.292 447.747,262.626 448.5,257.5C 448.842,247.292 449.842,237.292 451.5,227.5C 452.828,232.119 453.494,237.119 453.5,242.5C 453.333,247.5 453.167,252.5 453,257.5C 452.76,259.852 451.927,261.852 450.5,263.5C 449.5,263.833 448.833,264.5 448.5,265.5C 446.883,266.972 444.883,267.639 442.5,267.5C 440.955,267.489 439.622,267.156 438.5,266.5C 436.396,264.628 435.063,262.295 434.5,259.5C 433.857,248.448 434.524,237.781 436.5,227.5 Z"/></g>
<g><path style="opacity:0.656" fill="#7f69ac" d="M 436.5,227.5 C 437.376,227.369 438.043,227.702 438.5,228.5C 437.526,238.113 437.192,247.78 437.5,257.5C 436.506,247.681 436.173,237.681 436.5,227.5 Z"/></g>
<g><path style="opacity:0.994" fill="#baa2eb" d="M 485.5,227.5 C 485.5,239.5 485.5,251.5 485.5,263.5C 490.167,263.5 494.833,263.5 499.5,263.5C 499.5,264.5 499.5,265.5 499.5,266.5C 499.167,266.5 498.833,266.5 498.5,266.5C 493.167,266.5 487.833,266.5 482.5,266.5C 482.5,253.5 482.5,240.5 482.5,227.5C 483.652,226.375 484.652,226.375 485.5,227.5 Z"/></g>
<g><path style="opacity:0.76" fill="#503a79" d="M 526.5,227.5 C 526.5,240.5 526.5,253.5 526.5,266.5C 525.17,260.369 524.503,253.869 524.5,247C 524.503,240.131 525.17,233.631 526.5,227.5 Z"/></g>
<g><path style="opacity:0.995" fill="#ae96de" d="M 543.5,230.5 C 538.833,230.5 534.167,230.5 529.5,230.5C 529.5,235.5 529.5,240.5 529.5,245.5C 532.5,245.5 535.5,245.5 538.5,245.5C 538.5,246.5 538.5,247.5 538.5,248.5C 535.5,248.5 532.5,248.5 529.5,248.5C 529.5,253.5 529.5,258.5 529.5,263.5C 533.833,263.5 538.167,263.5 542.5,263.5C 542.5,264.5 542.5,265.5 542.5,266.5C 537.167,266.5 531.833,266.5 526.5,266.5C 526.5,253.5 526.5,240.5 526.5,227.5C 531.985,226.348 537.651,226.182 543.5,227C 544.791,228.292 544.791,229.458 543.5,230.5 Z"/></g>
<g><path style="opacity:0.975" fill="#b79fe7" d="M 651.5,227.5 C 651.833,227.5 652.167,227.5 652.5,227.5C 652.34,230.884 652.673,234.217 653.5,237.5C 653.253,238.713 652.586,239.38 651.5,239.5C 650.585,236.596 649.918,233.596 649.5,230.5C 649.64,228.97 650.307,227.97 651.5,227.5 Z"/></g>
<g><path style="opacity:0.993" fill="#a890d8" d="M 713.5,227.5 C 713.5,228.5 713.5,229.5 713.5,230.5C 709.167,230.5 704.833,230.5 700.5,230.5C 700.5,235.5 700.5,240.5 700.5,245.5C 703.5,245.5 706.5,245.5 709.5,245.5C 709.5,246.5 709.5,247.5 709.5,248.5C 706.5,248.5 703.5,248.5 700.5,248.5C 700.5,253.5 700.5,258.5 700.5,263.5C 704.833,263.5 709.167,263.5 713.5,263.5C 713.5,264.5 713.5,265.5 713.5,266.5C 707.833,266.5 702.167,266.5 696.5,266.5C 696.5,253.5 696.5,240.5 696.5,227.5C 702.266,226.196 707.933,226.196 713.5,227.5 Z"/></g>
<g><path style="opacity:0.835" fill="#46306e" d="M 746.5,227.5 C 745.5,227.5 744.5,227.5 743.5,227.5C 742.505,240.323 742.171,253.323 742.5,266.5C 743.5,266.5 744.5,266.5 745.5,266.5C 745.169,257.808 745.502,249.141 746.5,240.5C 747.298,240.957 747.631,241.624 747.5,242.5C 746.508,250.316 746.174,258.316 746.5,266.5C 744.777,267.807 742.943,267.807 741,266.5C 740.333,253.5 740.333,240.5 741,227.5C 742.943,226.193 744.777,226.193 746.5,227.5 Z"/></g>
<g><path style="opacity:0.917" fill="#bca4ee" d="M 743.5,227.5 C 744.5,227.5 745.5,227.5 746.5,227.5C 746.935,230.157 747.935,232.491 749.5,234.5C 749.877,237.525 750.044,240.525 750,243.5C 749.617,242.944 749.117,242.611 748.5,242.5C 748.756,240.088 747.756,238.421 745.5,237.5C 744.668,246.816 744.168,256.149 744,265.5C 743.5,252.838 743.333,240.171 743.5,227.5 Z"/></g>
<g><path style="opacity:0.996" fill="#baa2ec" d="M 758.5,227.5 C 760.481,240.124 761.148,253.124 760.5,266.5C 758.041,266.69 756.374,265.69 755.5,263.5C 755.5,262.5 755.5,261.5 755.5,260.5C 755.5,259.5 755.5,258.5 755.5,257.5C 756.5,257.5 757.5,257.5 758.5,257.5C 758.5,247.5 758.5,237.5 758.5,227.5 Z"/></g>
<g><path style="opacity:0.928" fill="#6b5495" d="M 757.5,227.5 C 758.833,226.167 760.167,226.167 761.5,227.5C 761.5,240.5 761.5,253.5 761.5,266.5C 761.167,266.5 760.833,266.5 760.5,266.5C 761.148,253.124 760.481,240.124 758.5,227.5C 758.167,227.5 757.833,227.5 757.5,227.5 Z"/></g>
<g><path style="opacity:0.376" fill="#2b1651" d="M 761.5,227.5 C 762.913,230.382 763.579,233.549 763.5,237C 762.983,246.999 762.317,256.833 761.5,266.5C 761.5,253.5 761.5,240.5 761.5,227.5 Z"/></g>
<g><path style="opacity:0.522" fill="#36205d" d="M 249.5,227.5 C 248.5,229.167 247.167,230.5 245.5,231.5C 245.833,229.167 247.167,227.833 249.5,227.5 Z"/></g>
<g><path style="opacity:0.481" fill="#3c2764" d="M 543.5,230.5 C 539.435,231.193 535.268,231.86 531,232.5C 531.249,236.575 531.416,240.575 531.5,244.5C 534.167,244.5 536.833,244.5 539.5,244.5C 539.5,246.167 539.5,247.833 539.5,249.5C 536.428,249.183 533.428,249.516 530.5,250.5C 531.433,254.429 531.766,258.429 531.5,262.5C 535.555,262.176 539.555,262.509 543.5,263.5C 544.833,264.5 544.833,265.5 543.5,266.5C 537.68,267.816 532.013,267.816 526.5,266.5C 531.833,266.5 537.167,266.5 542.5,266.5C 542.5,265.5 542.5,264.5 542.5,263.5C 538.167,263.5 533.833,263.5 529.5,263.5C 529.5,258.5 529.5,253.5 529.5,248.5C 532.5,248.5 535.5,248.5 538.5,248.5C 538.5,247.5 538.5,246.5 538.5,245.5C 535.5,245.5 532.5,245.5 529.5,245.5C 529.5,240.5 529.5,235.5 529.5,230.5C 534.167,230.5 538.833,230.5 543.5,230.5 Z"/></g>
<g><path style="opacity:0.184" fill="#432e6b" d="M 664.5,227.5 C 665.601,226.402 666.934,226.235 668.5,227C 669.059,227.725 669.392,228.558 669.5,229.5C 667.832,240.865 665.165,251.865 661.5,262.5C 663.608,250.855 665.608,239.188 667.5,227.5C 666.5,227.5 665.5,227.5 664.5,227.5 Z"/></g>
<g><path style="opacity:0.191" fill="#3f2967" d="M 789.5,227.5 C 789.5,228.5 789.5,229.5 789.5,230.5C 791.833,230.5 794.167,230.5 796.5,230.5C 796.5,242.5 796.5,254.5 796.5,266.5C 797.833,266.5 799.167,266.5 800.5,266.5C 799.081,267.451 797.415,267.784 795.5,267.5C 795.5,255.5 795.5,243.5 795.5,231.5C 793.143,231.663 790.81,231.497 788.5,231C 787.015,229.244 787.348,228.077 789.5,227.5 Z"/></g>
<g><path style="opacity:0.998" fill="#a991d8" d="M 808.5,230.5 C 805.833,230.5 803.167,230.5 800.5,230.5C 799.833,242.007 799.167,253.674 798.5,265.5C 797.833,253.674 797.167,242.007 796.5,230.5C 794.167,230.5 791.833,230.5 789.5,230.5C 789.5,229.5 789.5,228.5 789.5,227.5C 795.319,226.347 801.319,226.181 807.5,227C 809.495,227.924 809.828,229.09 808.5,230.5 Z"/></g>
<g><path style="opacity:1" fill="#907abe" d="M 796.5,230.5 C 797.167,242.007 797.833,253.674 798.5,265.5C 799.167,253.674 799.833,242.007 800.5,230.5C 800.5,242.5 800.5,254.5 800.5,266.5C 799.167,266.5 797.833,266.5 796.5,266.5C 796.5,254.5 796.5,242.5 796.5,230.5 Z"/></g>
<g><path style="opacity:0.082" fill="#37235e" d="M 746.5,227.5 C 748.448,229.32 749.448,231.654 749.5,234.5C 747.935,232.491 746.935,230.157 746.5,227.5 Z"/></g>
<g><path style="opacity:0.318" fill="#442f6b" d="M 260.5,228.5 C 264.204,230.759 265.704,234.092 265,238.5C 263.186,239.76 261.353,239.76 259.5,238.5C 258.423,236.271 257.756,233.937 257.5,231.5C 260.092,233.036 261.092,235.369 260.5,238.5C 261.5,238.5 262.5,238.5 263.5,238.5C 263.631,234.779 262.631,231.446 260.5,228.5 Z"/></g>
<g><path style="opacity:0.961" fill="#6a5495" d="M 64.5,227.5 C 64.2484,231.327 62.9151,234.66 60.5,237.5C 60.5,236.833 60.5,236.167 60.5,235.5C 61.3257,232.515 62.659,229.849 64.5,227.5 Z"/></g>
<g><path style="opacity:0.266" fill="#3a2562" d="M 311.5,227.5 C 311.167,227.5 310.833,227.5 310.5,227.5C 309.5,227.5 308.5,227.5 307.5,227.5C 307.5,233.5 307.5,239.5 307.5,245.5C 303.833,245.5 300.167,245.5 296.5,245.5C 296.5,239.5 296.5,233.5 296.5,227.5C 295.167,227.5 293.833,227.5 292.5,227.5C 292.5,240.5 292.5,253.5 292.5,266.5C 293.833,266.5 295.167,266.5 296.5,266.5C 296.5,260.5 296.5,254.5 296.5,248.5C 300.167,248.5 303.833,248.5 307.5,248.5C 307.5,254.5 307.5,260.5 307.5,266.5C 308.5,266.5 309.5,266.5 310.5,266.5C 310.833,266.5 311.167,266.5 311.5,266.5C 309.735,267.461 307.735,267.795 305.5,267.5C 305.5,261.5 305.5,255.5 305.5,249.5C 302.833,249.5 300.167,249.5 297.5,249.5C 297.5,255.5 297.5,261.5 297.5,267.5C 295.5,267.5 293.5,267.5 291.5,267.5C 291.5,253.833 291.5,240.167 291.5,226.5C 293.5,226.5 295.5,226.5 297.5,226.5C 297.5,232.5 297.5,238.5 297.5,244.5C 300.167,244.5 302.833,244.5 305.5,244.5C 305.5,238.5 305.5,232.5 305.5,226.5C 307.735,226.205 309.735,226.539 311.5,227.5 Z"/></g>
<g><path style="opacity:0.353" fill="#523d7c" d="M 310.5,227.5 C 310.833,227.5 311.167,227.5 311.5,227.5C 311.564,240.65 311.564,253.65 311.5,266.5C 311.167,266.5 310.833,266.5 310.5,266.5C 310.5,253.5 310.5,240.5 310.5,227.5 Z"/></g>
<g><path style="opacity:0.643" fill="#341f5b" d="M 340.5,227.5 C 340.5,240.5 340.5,253.5 340.5,266.5C 339.17,260.369 338.503,253.869 338.5,247C 338.503,240.131 339.17,233.631 340.5,227.5 Z"/></g>
<g><path style="opacity:0.831" fill="#36215d" d="M 397.5,227.5 C 393.833,227.5 390.167,227.5 386.5,227.5C 386.5,240.5 386.5,253.5 386.5,266.5C 385.351,266.209 384.684,265.376 384.5,264C 384.415,251.986 384.582,239.819 385,227.5C 389.267,226.178 393.434,226.178 397.5,227.5 Z"/></g>
<g><path style="opacity:0.441" fill="#665091" d="M 395.5,231.5 C 393.856,231.286 392.356,231.62 391,232.5C 390.333,242.167 390.333,251.833 391,261.5C 392.356,262.38 393.856,262.714 395.5,262.5C 393.735,263.461 391.735,263.795 389.5,263.5C 389.5,252.5 389.5,241.5 389.5,230.5C 391.735,230.205 393.735,230.539 395.5,231.5 Z"/></g>
<g><path style="opacity:0.487" fill="#3a2461" d="M 448.5,227.5 C 448.5,237.5 448.5,247.5 448.5,257.5C 447.747,262.626 445.08,264.292 440.5,262.5C 443.808,263.026 445.974,261.693 447,258.5C 447.17,247.992 447.67,237.659 448.5,227.5 Z"/></g>
<g><path style="opacity:0.984" fill="#836cb2" d="M 451.5,227.5 C 449.842,237.292 448.842,247.292 448.5,257.5C 448.5,247.5 448.5,237.5 448.5,227.5C 449.5,226.167 450.5,226.167 451.5,227.5 Z"/></g>
<g><path style="opacity:0.562" fill="#37225e" d="M 800.5,230.5 C 803.167,230.5 805.833,230.5 808.5,230.5C 806.393,231.468 804.059,231.802 801.5,231.5C 801.828,243.345 801.495,255.012 800.5,266.5C 800.5,254.5 800.5,242.5 800.5,230.5 Z"/></g>
<g><path style="opacity:0.853" fill="#7861a3" d="M 204.5,227.5 C 201.8,230.939 200.467,234.939 200.5,239.5C 200.167,239.5 199.833,239.5 199.5,239.5C 198.892,236.938 199.058,234.271 200,231.5C 200.748,229.249 202.248,227.916 204.5,227.5 Z"/></g>
<g><path style="opacity:0.598" fill="#47326f" d="M 206.5,231.5 C 205.569,233.033 204.902,234.7 204.5,236.5C 205.187,238.177 205.854,239.844 206.5,241.5C 203.386,239.186 202.719,236.186 204.5,232.5C 204.957,231.702 205.624,231.369 206.5,231.5 Z"/></g>
<g><path style="opacity:0.459" fill="#38235f" d="M 210.5,231.5 C 212.027,231.427 213.027,232.094 213.5,233.5C 213.5,235.5 213.5,237.5 213.5,239.5C 212.512,236.919 211.512,234.252 210.5,231.5 Z"/></g>
<g><path style="opacity:0.118" fill="#341e5b" d="M 245.5,231.5 C 245.334,241.506 245.5,251.506 246,261.5C 246.662,262.984 247.496,264.317 248.5,265.5C 245.832,264.543 244.332,262.543 244,259.5C 243.333,251.167 243.333,242.833 244,234.5C 244.232,233.263 244.732,232.263 245.5,231.5 Z"/></g>
<g><path style="opacity:0.989" fill="#a78fd6" d="M 260.5,228.5 C 262.631,231.446 263.631,234.779 263.5,238.5C 262.5,238.5 261.5,238.5 260.5,238.5C 261.092,235.369 260.092,233.036 257.5,231.5C 255.05,231.298 252.717,231.631 250.5,232.5C 249.883,232.611 249.383,232.944 249,233.5C 248.177,242.01 248.343,250.344 249.5,258.5C 249.822,262.976 252.156,264.476 256.5,263C 257.416,262.626 258.25,262.126 259,261.5C 258.855,258.077 260.355,256.077 263.5,255.5C 263.599,258.237 263.265,260.904 262.5,263.5C 261.738,265.262 260.404,266.262 258.5,266.5C 255.098,266.658 251.764,266.324 248.5,265.5C 247.496,264.317 246.662,262.984 246,261.5C 245.5,251.506 245.334,241.506 245.5,231.5C 247.167,230.5 248.5,229.167 249.5,227.5C 250.793,226.842 252.293,226.508 254,226.5C 256.544,226.336 258.71,227.003 260.5,228.5 Z"/></g>
<g><path style="opacity:0.541" fill="#6c5697" d="M 250.5,232.5 C 249.841,235.455 249.508,238.455 249.5,241.5C 249.5,247.167 249.5,252.833 249.5,258.5C 248.343,250.344 248.177,242.01 249,233.5C 249.383,232.944 249.883,232.611 250.5,232.5 Z"/></g>
<g><path style="opacity:0.521" fill="#866fb3" d="M 403.5,232.5 C 404.658,241.657 404.824,250.991 404,260.5C 403.768,261.737 403.268,262.737 402.5,263.5C 403.371,253.194 403.704,242.86 403.5,232.5 Z"/></g>
<g><path style="opacity:1" fill="#8971b6" d="M 212.5,227.5 C 215.167,228.167 216.833,229.833 217.5,232.5C 217.5,234.833 217.5,237.167 217.5,239.5C 216.167,239.5 214.833,239.5 213.5,239.5C 213.5,237.5 213.5,235.5 213.5,233.5C 214.41,235.019 215.243,236.685 216,238.5C 216.667,236.167 216.667,233.833 216,231.5C 214.28,230.616 213.114,229.283 212.5,227.5 Z"/></g>
<g><path style="opacity:0.416" fill="#523c7a" d="M 651.5,227.5 C 650.307,227.97 649.64,228.97 649.5,230.5C 649.918,233.596 650.585,236.596 651.5,239.5C 653.171,248.175 654.837,256.842 656.5,265.5C 657.833,265.5 659.167,265.5 660.5,265.5C 660.263,264.209 660.596,263.209 661.5,262.5C 662.17,265.59 661.003,267.257 658,267.5C 656.674,267.245 655.674,266.578 655,265.5C 652.592,253.644 650.092,241.811 647.5,230C 647.663,226.803 648.996,225.969 651.5,227.5 Z"/></g>
<g><path style="opacity:0.575" fill="#422c6a" d="M 396.5,231.5 C 398.411,231.574 399.578,232.574 400,234.5C 400.667,242.833 400.667,251.167 400,259.5C 399.411,261.863 397.911,262.863 395.5,262.5C 397.576,261.573 398.743,259.907 399,257.5C 399.667,250.167 399.667,242.833 399,235.5C 398.338,234.016 397.504,232.683 396.5,231.5 Z"/></g>
<g><path style="opacity:0.013" fill="#341f5b" d="M 757.5,227.5 C 757.5,233.833 757.5,240.167 757.5,246.5C 756.778,246.082 756.278,245.416 756,244.5C 755.412,247.139 755.912,249.473 757.5,251.5C 757.657,252.873 757.49,254.207 757,255.5C 755.53,252.256 754.363,248.923 753.5,245.5C 753.783,244.711 754.283,244.044 755,243.5C 755.867,238.028 756.7,232.694 757.5,227.5 Z"/></g>
<g><path style="opacity:0.056" fill="#2b1651" d="M 217.5,232.5 C 218.473,234.948 218.806,237.615 218.5,240.5C 216.585,240.784 214.919,240.451 213.5,239.5C 214.833,239.5 216.167,239.5 217.5,239.5C 217.5,237.167 217.5,234.833 217.5,232.5 Z"/></g>
<g><path style="opacity:0.999" fill="#ad95dd" d="M 212.5,227.5 C 213.114,229.283 214.28,230.616 216,231.5C 216.667,233.833 216.667,236.167 216,238.5C 215.243,236.685 214.41,235.019 213.5,233.5C 213.027,232.094 212.027,231.427 210.5,231.5C 209.167,231.5 207.833,231.5 206.5,231.5C 205.624,231.369 204.957,231.702 204.5,232.5C 202.719,236.186 203.386,239.186 206.5,241.5C 207.5,241.833 208.167,242.5 208.5,243.5C 209.035,245.446 210.368,246.446 212.5,246.5C 212.81,248.144 213.81,249.144 215.5,249.5C 216.666,252.83 216.666,256.163 215.5,259.5C 214.831,257.369 214.165,255.369 213.5,253.5C 212.441,251.445 210.775,250.111 208.5,249.5C 208.027,248.094 207.027,247.427 205.5,247.5C 203.322,245.142 201.655,242.475 200.5,239.5C 200.467,234.939 201.8,230.939 204.5,227.5C 207.061,226.233 209.728,226.233 212.5,227.5 Z"/></g>
<g><path style="opacity:0.471" fill="#392461" d="M 199.5,239.5 C 199.833,239.5 200.167,239.5 200.5,239.5C 201.655,242.475 203.322,245.142 205.5,247.5C 202.063,245.977 200.063,243.311 199.5,239.5 Z"/></g>
<g><path style="opacity:0.467" fill="#3a2562" d="M 357.5,227.5 C 358.434,228.568 358.768,229.901 358.5,231.5C 354.167,231.5 349.833,231.5 345.5,231.5C 345.5,235.833 345.5,240.167 345.5,244.5C 348.385,244.194 351.052,244.527 353.5,245.5C 350.5,245.5 347.5,245.5 344.5,245.5C 344.5,240.5 344.5,235.5 344.5,230.5C 348.833,230.5 353.167,230.5 357.5,230.5C 357.5,229.5 357.5,228.5 357.5,227.5 Z"/></g>
<g><path style="opacity:0.975" fill="#937bc0" d="M 622.5,227.5 C 622.5,228.5 622.5,229.5 622.5,230.5C 617.833,230.5 613.167,230.5 608.5,230.5C 608.5,235.5 608.5,240.5 608.5,245.5C 611.5,245.5 614.5,245.5 617.5,245.5C 617.5,246.5 617.5,247.5 617.5,248.5C 614.5,248.5 611.5,248.5 608.5,248.5C 608.5,253.5 608.5,258.5 608.5,263.5C 613.167,263.5 617.833,263.5 622.5,263.5C 622.5,264.5 622.5,265.5 622.5,266.5C 616.432,267.826 610.266,267.826 604,266.5C 603.167,253.487 603.334,240.487 604.5,227.5C 610.53,226.17 616.53,226.17 622.5,227.5 Z"/></g>
<g><path style="opacity:0.179" fill="#3a2561" d="M 696.5,227.5 C 696.5,240.5 696.5,253.5 696.5,266.5C 702.167,266.5 707.833,266.5 713.5,266.5C 713.5,265.5 713.5,264.5 713.5,263.5C 709.167,263.5 704.833,263.5 700.5,263.5C 700.5,258.5 700.5,253.5 700.5,248.5C 703.5,248.5 706.5,248.5 709.5,248.5C 709.5,247.5 709.5,246.5 709.5,245.5C 706.5,245.5 703.5,245.5 700.5,245.5C 700.5,240.5 700.5,235.5 700.5,230.5C 704.833,230.5 709.167,230.5 713.5,230.5C 713.5,229.5 713.5,228.5 713.5,227.5C 715.758,227.775 716.092,228.775 714.5,230.5C 710.217,231.492 705.884,231.826 701.5,231.5C 701.5,235.833 701.5,240.167 701.5,244.5C 704.5,244.5 707.5,244.5 710.5,244.5C 710.5,246.167 710.5,247.833 710.5,249.5C 707.5,249.5 704.5,249.5 701.5,249.5C 701.5,253.833 701.5,258.167 701.5,262.5C 705.884,262.174 710.217,262.508 714.5,263.5C 715.833,264.5 715.833,265.5 714.5,266.5C 708.202,267.496 701.868,267.83 695.5,267.5C 695.171,253.99 695.504,240.656 696.5,227.5 Z"/></g>
<g><path style="opacity:0.782" fill="#a38bd2" d="M 743.5,227.5 C 743.333,240.171 743.5,252.838 744,265.5C 744.168,256.149 744.668,246.816 745.5,237.5C 747.756,238.421 748.756,240.088 748.5,242.5C 748.167,242.5 747.833,242.5 747.5,242.5C 747.631,241.624 747.298,240.957 746.5,240.5C 745.502,249.141 745.169,257.808 745.5,266.5C 744.5,266.5 743.5,266.5 742.5,266.5C 742.171,253.323 742.505,240.323 743.5,227.5 Z"/></g>
<g><path style="opacity:0.28" fill="#291550" d="M 747.5,242.5 C 747.833,242.5 748.167,242.5 748.5,242.5C 749.167,245.167 749.833,247.833 750.5,250.5C 749.603,249.402 748.77,249.402 748,250.5C 747.827,256.016 747.327,261.349 746.5,266.5C 746.174,258.316 746.508,250.316 747.5,242.5 Z"/></g>
<g><path style="opacity:0.773" fill="#5e4788" d="M 208.5,243.5 C 210.23,244.026 211.564,245.026 212.5,246.5C 210.368,246.446 209.035,245.446 208.5,243.5 Z"/></g>
<g><path style="opacity:0.985" fill="#a48cd4" d="M 344.5,230.5 C 344.5,235.5 344.5,240.5 344.5,245.5C 347.5,245.5 350.5,245.5 353.5,245.5C 354.833,246.5 354.833,247.5 353.5,248.5C 350.5,248.5 347.5,248.5 344.5,248.5C 344.5,253.5 344.5,258.5 344.5,263.5C 343.769,258.145 343.102,252.645 342.5,247C 343.102,241.355 343.769,235.855 344.5,230.5 Z"/></g>
<g><path style="opacity:0.718" fill="#47336e" d="M 110.5,208.5 C 110.5,238.167 110.5,267.833 110.5,297.5C 109.5,297.5 108.5,297.5 107.5,297.5C 108.814,284.89 109.481,272.056 109.5,259C 109.058,242.413 109.058,225.913 109.5,209.5C 103.686,209.704 98.0191,210.704 92.5,212.5C 97.966,209.303 103.966,207.97 110.5,208.5 Z"/></g>
<g><path style="opacity:1" fill="#9a81c7" d="M 110.5,208.5 C 111.498,238.329 111.831,268.329 111.5,298.5C 108.287,298.81 105.287,298.477 102.5,297.5C 103.5,297.5 104.5,297.5 105.5,297.5C 106.167,297.5 106.833,297.5 107.5,297.5C 108.5,297.5 109.5,297.5 110.5,297.5C 110.5,267.833 110.5,238.167 110.5,208.5 Z"/></g>
<g><path style="opacity:0.935" fill="#a48cd3" d="M 757.5,227.5 C 757.833,227.5 758.167,227.5 758.5,227.5C 758.5,237.5 758.5,247.5 758.5,257.5C 757.5,257.5 756.5,257.5 755.5,257.5C 755.5,258.5 755.5,259.5 755.5,260.5C 753.833,257.167 752.167,253.833 750.5,250.5C 749.833,247.833 749.167,245.167 748.5,242.5C 749.117,242.611 749.617,242.944 750,243.5C 750.044,240.525 749.877,237.525 749.5,234.5C 751.121,238.073 752.454,241.739 753.5,245.5C 754.363,248.923 755.53,252.256 757,255.5C 757.49,254.207 757.657,252.873 757.5,251.5C 757.5,249.833 757.5,248.167 757.5,246.5C 757.5,240.167 757.5,233.833 757.5,227.5 Z M 757.5,246.5 C 757.5,248.167 757.5,249.833 757.5,251.5C 755.912,249.473 755.412,247.139 756,244.5C 756.278,245.416 756.778,246.082 757.5,246.5 Z"/></g>
<g><path style="opacity:0.553" fill="#412b68" d="M 205.5,247.5 C 207.027,247.427 208.027,248.094 208.5,249.5C 206.973,249.573 205.973,248.906 205.5,247.5 Z"/></g>
<g><path style="opacity:0.306" fill="#543e7e" d="M 212.5,246.5 C 214.19,246.856 215.19,247.856 215.5,249.5C 213.81,249.144 212.81,248.144 212.5,246.5 Z"/></g>
<g><path style="opacity:0.69" fill="#ad95dc" d="M 652.5,227.5 C 654.678,233.876 656.011,240.543 656.5,247.5C 656.28,250.4 656.946,253.067 658.5,255.5C 660.171,253.49 660.838,251.157 660.5,248.5C 660.5,247.167 660.5,245.833 660.5,244.5C 660.5,244.167 660.5,243.833 660.5,243.5C 662.917,238.559 664.25,233.226 664.5,227.5C 665.5,227.5 666.5,227.5 667.5,227.5C 665.608,239.188 663.608,250.855 661.5,262.5C 660.596,263.209 660.263,264.209 660.5,265.5C 659.167,265.5 657.833,265.5 656.5,265.5C 654.837,256.842 653.171,248.175 651.5,239.5C 652.586,239.38 653.253,238.713 653.5,237.5C 652.673,234.217 652.34,230.884 652.5,227.5 Z"/></g>
<g><path style="opacity:0.049" fill="#210c47" d="M 660.5,244.5 C 660.5,245.833 660.5,247.167 660.5,248.5C 658.19,252.786 657.19,252.452 657.5,247.5C 657.5,246.5 657.5,245.5 657.5,244.5C 658.5,244.5 659.5,244.5 660.5,244.5 Z"/></g>
<g><path style="opacity:0.929" fill="#473270" d="M 664.5,227.5 C 664.25,233.226 662.917,238.559 660.5,243.5C 661.189,237.766 662.522,232.433 664.5,227.5 Z"/></g>
<g><path style="opacity:1" fill="#533d7c" d="M 656.5,247.5 C 656.833,247.5 657.167,247.5 657.5,247.5C 657.19,252.452 658.19,252.786 660.5,248.5C 660.838,251.157 660.171,253.49 658.5,255.5C 656.946,253.067 656.28,250.4 656.5,247.5 Z"/></g>
<g><path style="opacity:0.043" fill="#3d2764" d="M 71.5,228.5 C 69.369,233.437 67.2023,238.437 65,243.5C 64.5005,249.825 64.3338,256.158 64.5,262.5C 63.346,256.013 63.1794,249.346 64,242.5C 65.2278,237.038 67.7278,232.371 71.5,228.5 Z"/></g>
<g><path style="opacity:0.004" fill="#37225f" d="M 750.5,250.5 C 752.167,253.833 753.833,257.167 755.5,260.5C 755.5,261.5 755.5,262.5 755.5,263.5C 752.473,259.763 750.807,255.43 750.5,250.5 Z"/></g>
<g><path style="opacity:0.302" fill="#3f2967" d="M 208.5,249.5 C 210.775,250.111 212.441,251.445 213.5,253.5C 213.5,254.5 213.5,255.5 213.5,256.5C 212.091,254.028 210.424,251.695 208.5,249.5 Z"/></g>
<g><path style="opacity:0.808" fill="#4c3673" d="M 203.5,254.5 C 202.5,254.5 201.5,254.5 200.5,254.5C 199.742,259.271 201.075,263.271 204.5,266.5C 202.248,266.084 200.748,264.751 200,262.5C 199.502,259.518 199.335,256.518 199.5,253.5C 201.099,253.232 202.432,253.566 203.5,254.5 Z"/></g>
<g><path style="opacity:0.994" fill="#826baf" d="M 215.5,249.5 C 217.894,251.332 218.894,253.832 218.5,257C 218.894,260.168 217.894,262.668 215.5,264.5C 215.657,263.127 215.49,261.793 215,260.5C 214.617,261.056 214.117,261.389 213.5,261.5C 213.5,260.5 213.5,259.5 213.5,258.5C 213.5,257.833 213.5,257.167 213.5,256.5C 213.5,255.5 213.5,254.5 213.5,253.5C 214.165,255.369 214.831,257.369 215.5,259.5C 216.666,256.163 216.666,252.83 215.5,249.5 Z"/></g>
<g><path style="opacity:1" fill="#a68ed5" d="M 203.5,254.5 C 203.189,262.555 206.522,264.888 213.5,261.5C 214.117,261.389 214.617,261.056 215,260.5C 215.49,261.793 215.657,263.127 215.5,264.5C 214.942,265.79 213.942,266.623 212.5,267C 209.633,267.801 206.966,267.634 204.5,266.5C 201.075,263.271 199.742,259.271 200.5,254.5C 201.5,254.5 202.5,254.5 203.5,254.5 Z"/></g>
<g><path style="opacity:0.522" fill="#44306c" d="M 433.5,259.5 C 433.833,259.5 434.167,259.5 434.5,259.5C 435.063,262.295 436.396,264.628 438.5,266.5C 435.142,265.473 433.475,263.14 433.5,259.5 Z"/></g>
<g><path style="opacity:0.125" fill="#37225e" d="M 249.5,241.5 C 250.328,247.653 250.828,253.987 251,260.5C 252.133,262.211 253.633,262.711 255.5,262C 257.707,260.208 259.041,257.874 259.5,255C 261.956,254.054 263.956,254.554 265.5,256.5C 265.113,259.238 264.113,261.572 262.5,263.5C 263.265,260.904 263.599,258.237 263.5,255.5C 260.355,256.077 258.855,258.077 259,261.5C 258.25,262.126 257.416,262.626 256.5,263C 252.156,264.476 249.822,262.976 249.5,258.5C 249.5,252.833 249.5,247.167 249.5,241.5 Z"/></g>
<g><path style="opacity:0.424" fill="#3c2762" d="M 203.5,254.5 C 204.168,257.245 205.501,259.745 207.5,262C 208.5,262.667 209.5,262.667 210.5,262C 211.163,260.482 212.163,259.315 213.5,258.5C 213.5,259.5 213.5,260.5 213.5,261.5C 206.522,264.888 203.189,262.555 203.5,254.5 Z"/></g>
<g><path style="opacity:0.664" fill="#432e6a" d="M 353.5,248.5 C 351.052,249.473 348.385,249.806 345.5,249.5C 345.5,253.833 345.5,258.167 345.5,262.5C 349.833,262.5 354.167,262.5 358.5,262.5C 358.768,264.099 358.434,265.432 357.5,266.5C 357.737,265.209 357.404,264.209 356.5,263.5C 352.5,263.5 348.5,263.5 344.5,263.5C 344.5,258.5 344.5,253.5 344.5,248.5C 347.5,248.5 350.5,248.5 353.5,248.5 Z"/></g>
<g><path style="opacity:0.63" fill="#533e7c" d="M 485.5,227.5 C 486.331,238.659 486.831,249.993 487,261.5C 491.45,261.454 495.95,261.788 500.5,262.5C 500.768,264.099 500.434,265.432 499.5,266.5C 499.5,265.5 499.5,264.5 499.5,263.5C 494.833,263.5 490.167,263.5 485.5,263.5C 485.5,251.5 485.5,239.5 485.5,227.5 Z"/></g>
<g><path style="opacity:0.489" fill="#48326f" d="M 622.5,227.5 C 623.434,228.568 623.768,229.901 623.5,231.5C 619.154,231.334 614.821,231.501 610.5,232C 610.778,236.093 610.444,240.259 609.5,244.5C 612.5,244.5 615.5,244.5 618.5,244.5C 618.5,246.167 618.5,247.833 618.5,249.5C 615.5,249.5 612.5,249.5 609.5,249.5C 610.264,253.722 610.598,257.888 610.5,262C 614.821,262.499 619.154,262.666 623.5,262.5C 623.768,264.099 623.434,265.432 622.5,266.5C 622.5,265.5 622.5,264.5 622.5,263.5C 617.833,263.5 613.167,263.5 608.5,263.5C 608.5,258.5 608.5,253.5 608.5,248.5C 611.5,248.5 614.5,248.5 617.5,248.5C 617.5,247.5 617.5,246.5 617.5,245.5C 614.5,245.5 611.5,245.5 608.5,245.5C 608.5,240.5 608.5,235.5 608.5,230.5C 613.167,230.5 617.833,230.5 622.5,230.5C 622.5,229.5 622.5,228.5 622.5,227.5 Z"/></g>
<g><path style="opacity:0.039" fill="#1e0943" d="M 164.5,260.5 C 164.171,274.677 164.504,288.677 165.5,302.5C 167.265,303.461 169.265,303.795 171.5,303.5C 169.105,304.814 166.605,304.814 164,303.5C 163.173,288.994 163.339,274.661 164.5,260.5 Z"/></g>
<g><path style="opacity:0.653" fill="#644d8e" d="M 197.5,207.5 C 189.016,208.493 180.349,208.826 171.5,208.5C 171.617,240.104 171.617,271.771 171.5,303.5C 169.265,303.795 167.265,303.461 165.5,302.5C 167.167,302.5 168.833,302.5 170.5,302.5C 170.5,270.833 170.5,239.167 170.5,207.5C 179.5,207.5 188.5,207.5 197.5,207.5 Z"/></g>
<g><path style="opacity:0.016" fill="#38235e" d="M 450.5,263.5 C 450.5,264.833 449.833,265.5 448.5,265.5C 448.833,264.5 449.5,263.833 450.5,263.5 Z"/></g>
<g><path style="opacity:0.455" fill="#3c2764" d="M 248.5,265.5 C 251.764,266.324 255.098,266.658 258.5,266.5C 255.696,267.638 252.696,267.805 249.5,267C 248.944,266.617 248.611,266.117 248.5,265.5 Z"/></g>
<g><path style="opacity:0.045" fill="#321d58" d="M 482.5,227.5 C 482.5,240.5 482.5,253.5 482.5,266.5C 487.833,266.5 493.167,266.5 498.5,266.5C 493.025,267.489 487.358,267.822 481.5,267.5C 481.171,253.99 481.504,240.656 482.5,227.5 Z"/></g>
<g><path style="opacity:0.045" fill="#28134d" d="M 755.5,263.5 C 756.374,265.69 758.041,266.69 760.5,266.5C 760.833,266.5 761.167,266.5 761.5,266.5C 760.054,267.613 758.387,267.78 756.5,267C 755.663,265.989 755.33,264.822 755.5,263.5 Z"/></g>
<g><path style="opacity:0.773" fill="#523c7b" d="M 64.5,263.5 C 66.1209,267.422 67.7875,271.422 69.5,275.5C 66.2279,272.276 64.5612,268.276 64.5,263.5 Z"/></g>
<g><path style="opacity:0.51" fill="#382360" d="M 60.5,235.5 C 60.5,236.167 60.5,236.833 60.5,237.5C 54.3246,259.466 59.6579,278.133 76.5,293.5C 66.1115,286.599 59.6115,276.932 57,264.5C 56.3333,257.833 56.3333,251.167 57,244.5C 57.9003,241.282 59.067,238.282 60.5,235.5 Z"/></g>
<g><path style="opacity:0.267" fill="#543e7e" d="M 69.5,275.5 C 70.8897,276.899 71.8897,278.566 72.5,280.5C 70.2407,279.656 69.2407,277.989 69.5,275.5 Z"/></g>
<g><path style="opacity:0.698" fill="#4f3a78" d="M 72.5,280.5 C 75.1667,282.5 77.5,284.833 79.5,287.5C 76.1667,286.167 73.8333,283.833 72.5,280.5 Z"/></g>
<g><path style="opacity:0.424" fill="#4c3674" d="M 79.5,287.5 C 87.5903,292.554 96.2569,295.887 105.5,297.5C 104.5,297.5 103.5,297.5 102.5,297.5C 93.6881,296.589 86.0215,293.256 79.5,287.5 Z"/></g>
<g><path style="opacity:0.404" fill="#342059" d="M 76.5,293.5 C 78.0269,293.427 79.0269,294.094 79.5,295.5C 77.9731,295.573 76.9731,294.906 76.5,293.5 Z"/></g>
<g><path style="opacity:0.188" fill="#2d1954" d="M 81.5,296.5 C 83.8185,296.992 85.8185,297.992 87.5,299.5C 84.911,299.539 82.911,298.539 81.5,296.5 Z"/></g>
<g><path style="opacity:0.871" fill="#402a67" d="M 87.5,299.5 C 90.9164,299.528 93.9164,300.528 96.5,302.5C 93.0836,302.472 90.0836,301.472 87.5,299.5 Z"/></g>
<g><path style="opacity:0.216" fill="#37225e" d="M 96.5,302.5 C 102.829,302.9 109.162,303.233 115.5,303.5C 115.833,303.5 116.167,303.5 116.5,303.5C 114.19,304.164 111.69,304.497 109,304.5C 104.573,304.606 100.406,303.94 96.5,302.5 Z"/></g>
</svg>
