<?xml version="1.0" encoding="UTF-8"?>
<svg version="1.1" viewBox="0 0 2048 845" width="911" height="376" xmlns="http://www.w3.org/2000/svg">
<path transform="translate(249,50)" d="m0 0h190l28 3 28 6 23 8 18 8 17 9 12 8 13 10 12 11 14 14 10 13 13 21 9 20 8 24 5 23 2 21v26l-3 23-6 23-8 22-12 23-16 22-11 12-12 12-14 11-13 9-23 12-19 8-21 7-22 5-25 3-19 1h-42l1 12v202l-1 1h-14l-1-5 1-35 1-175h-109l-1 215-9 1-22-1-15-3-18-6-16-8-11-7-13-12-7-8-9-14-6-13-4-13-2-10v-33l5-19 5-12 9-17 8-10 13-13 18-12 15-7 15-5 20-4 10-1v-400zm15 13-3 3v386l1 2h109l1-281 3-1h58l18 2 18 5 16 8 11 8 8 8 9 13 6 13 4 17 1 15-2 15-5 16-6 11-11 14-14 11-16 8-15 5-12 2h-16l1-11 4-1 19-2 18-6 13-7 12-11 9-14 5-12 3-14v-12l-4-19-8-16-11-13-10-7-16-8-15-4-8-1h-53l-1 1 1 268h51l27-3 15-3 24-7 16-6 19-9 16-10 13-10 12-11 13-13 13-17 12-21 10-25 5-18 3-16 1-7v-29l-3-25-5-21-7-19-10-21-11-17-8-10-11-12-8-8-17-13-14-9-16-9-19-8-19-6-31-6-9-1-20-1zm-27 407-19 4-18 7-16 10-12 11-9 9-10 17-7 17-2 9-1 9v16l2 15 4 13 8 16 9 13 7 7 15 11 16 8 18 6 19 3 6-1 1-2v-198z" fill="#C7AAFC"/>
<path transform="translate(1087,294)" d="m0 0h8l4 5 7 21 16 39 3 10 5 8 1 6 2-1 1-3v-83l3-2h7l2 1 1 126-3 3h-9l-3-3-11-28-9-22-6-16-4-12-1-5-3 4-1 3v36l-1 42-1 1h-8l-3-2v-126z" fill="#C7AAFC"/>
<path transform="translate(983,294)" d="m0 0h9l3 5 13 57 6 28 9 36-2 4h-10l-3-7-3-16-1-2h-29l-4 1-5 21-3 3h-9v-11l5-23 2-7 2-14 4-18 4-13 6-27 4-15zm4 31-3 7-6 26-4 18v10l1 1 23 1 4-3-2-11-7-32-3-14z" fill="#C7AAFC"/>
<path transform="translate(713,293)" d="m0 0h29l11 2 7 4 8 9 4 9 1 4v16l-4 13-7 9-5 4-5 2-7 1-20 1-1 56-2 1h-9l-1-1-1-30v-93zm14 13-3 2v44l4 2h17l7-3 4-5 2-4 1-13-2-13-4-6-7-3-7-1z" fill="#C7AAFC"/>
<path transform="translate(1307,294)" d="m0 0h54l2 2v9l-4 2h-41v45l28 1 2 2v9l-3 2h-27v57l-1 1h-11l-1-1v-126z" fill="#C7AAFC"/>
<path transform="translate(1421,294)" d="m0 0h8l3 5 5 13 4 13 3 9 1 6 5 2 5 4v-12l4-13 7-19 3-6 4-2h6l2 3-3 13-7 17-5 15-7 16-3 12v53l-1 1h-11l-1-1-1-11v-47l-3-10-8-20-6-16-5-14-1-10z" fill="#C7AAFC"/>
<path transform="translate(1668,513)" d="m0 0h11l4 8 8 24 1 10 4 1 3 6 1 9 3-1 2-6v-8l-2-9v-29l-1-5h12v55l-1 25 1 5-4 2-7-1-6-12-7-19-3-8-6-2-4-13-3-2v19h5l1 6v19l-1 11-1 1h-9l-1-1z" fill="#C7AAFC"/>
<path transform="translate(840,294)" d="m0 0h9l2 3v115h42l2 2v9l-1 1h-54l-3-7v-115l1-7z" fill="#C7AAFC"/>
<path transform="translate(690,512)" d="m0 0h9l1 1v86l-1 1h-8l-1-1v-39h-22v39h-10v-86h10l1 38h20z" fill="#C7AAFC"/>
<path transform="translate(872,512)" d="m0 0h18l8 2 8 7 3 7v55l-3 9-6 6-12 2-19-1-1-5v-81zm9 8-3 2-1 28v21l1 19 2 2h10l7-4 3-8v-51l-3-5-5-4z" fill="#C7AAFC"/>
<path transform="translate(978,512)" d="m0 0 6 1 1 71 2 5 4 2 7 1 6-3 3-7 1-68 1-1h8l1 1v67l-2 8-5 7-7 4-13 1-7-3-6-7-3-8-1-5v-65z" fill="#C7AAFC"/>
<path transform="translate(465,511)" d="m0 0h7l9 3 5 5 4 6 2 7v6l-1 1h-8l-2-1-4-15-1-2-4-1h-7l-4 7v11l7 9 14 11 8 11 2 5v10l-5 10-6 5-8 2h-7l-7-2-8-9-1-3v-14l9 1 1 1 1 9 3 5v2h11l6-8v-7l-5-8-10-9-9-7-6-8-1-3v-16l4-8 7-5z" fill="#C7AAFC"/>
<path transform="translate(1458,512)" d="m0 0 10 1 1 1 5 28v22l8-3h5v-13l2-11 2-6 2-18h11l-1 9-3 18-5 22-9 37-5 1-5-1-2-6-10-48-6-26z" fill="#C7AAFC"/>
<path transform="translate(1220,294)" d="m0 0h10l1 1v128l-1 1h-10l-1-12v-108z" fill="#C7AAFC"/>
<path transform="translate(568,511)" d="m0 0h8l9 3 5 4 4 8 1 10-8 1-2-2-3-11-3-3-3-1h-8l-6 7-1 5 1 52 5 6 2 1h8l5-4 2-11 5-1 5 2v9l-3 7-7 6-7 2h-9l-7-2-5-4-4-7-1-5v-54l3-9 8-7z" fill="#C7AAFC"/>
<path transform="translate(768,512)" d="m0 0h33l4 1v6l-1 1-27 1-1 2v29h16l3 2-1 5-2 1h-13l-4 2 1 11v19h28l1 1v6l-12 1h-24l-4-1v-86z" fill="#C7AAFC"/>
<path transform="translate(1363,512)" d="m0 0h32l6 1-1 7-29 1v31h17l2 1-1 6-1 1h-17l-1 32h29l2 2v5l-3 1h-37l-1-1v-86z" fill="#C7AAFC"/>
<path transform="translate(1570,512)" d="m0 0h29l7 1v6l-1 1-26 1-2 3v25l3 3h12l4 2-1 5-2 1h-13l-3 2v27l1 2 6 1h20l2 1v6l-7 1h-31l-2-1v-85z" fill="#C7AAFC"/>
<path transform="translate(1186,512)" d="m0 0h32l4 1v6l-1 1-27 1-1 2v25l2 4h14l3 2-1 5-2 1h-16v27l1 4 5 1h21l2 1v6l-2 1h-35l-3-3v-83z" fill="#C7AAFC"/>
<path transform="translate(1779,512)" d="m0 0h36l4 1-1 5-2 2h-13l-1 78-1 1h-9l-1-1 1-78h-15l-3-3 1-4z" fill="#C7AAFC"/>
<path transform="translate(1084,513)" d="m0 0h10v78l28 1 2 2-1 5-5 1h-33l-1-1z" fill="#C7AAFC"/>
<path transform="translate(1597,594)" d="m0 0h8v4h-6z" fill="#FEFEFE"/>
</svg>
